<svg height="409pt" viewBox="0 -44 409.60341 409" width="409pt" xmlns="http://www.w3.org/2000/svg"><g id="bracelet-paths"><path d="m204.800781 320.347656c-109.882812 0-196.914062-31.375-204.269531-73.277344-.339844-.792968-.53125-1.664062-.53125-2.574218v-163.839844c0-.339844.0273438-.671875.0742188-1-.046875-.605469-.0742188-1.207031-.0742188-1.816406 0-1.9375.207031-3.941406.652344-6.300782.605468-3.226562 3.421875-5.5625 6.703125-5.566406h.003906c3.28125 0 6.101563 2.332032 6.707031 5.558594.6875 3.636719 2.367188 7.300781 4.996094 10.894531 3.011719 4.117188 7.292969 8.210938 12.726562 12.160157 6.339844 4.613281 14.101563 8.964843 23.066407 12.929687 36.941406 16.328125 91.59375 25.695313 149.945312 25.695313 58.355469 0 113.007813-9.367188 149.945313-25.695313 8.96875-3.964844 16.730468-8.316406 23.070312-12.929687 5.433594-3.949219 9.710938-8.042969 12.730469-12.167969 2.621094-3.585938 4.300781-7.25 4.988281-10.886719.605469-3.226562 3.425782-5.558594 6.707032-5.558594h.007812c3.28125.003906 6.09375 2.339844 6.699219 5.566406.449219 2.359376.652343 4.363282.652343 6.300782 0 .613281-.027343 1.226562-.070312 1.839844.042969.320312.070312.644531.070312.976562v163.839844c0 .960937-.199218 1.882812-.558593 2.710937-7.511719 41.835938-94.484375 73.140625-204.242188 73.140625zm-191.148437-77.578125c.082031.292969.140625.597657.179687.902344 4.574219 37.699219 102.433594 63.023437 190.96875 63.023437 88.53125 0 186.394531-25.324218 190.964844-63.023437.042969-.3125.101563-.621094.179687-.921875v-145.722656c-2.910156 2.953125-6.285156 5.828125-10.09375 8.597656-7.125 5.183594-15.730468 10.019531-25.585937 14.378906-38.613281 17.066406-95.277344 26.859375-155.464844 26.859375s-116.855469-9.792969-155.46875-26.859375c-9.851562-4.359375-18.457031-9.195312-25.585937-14.378906-3.804688-2.769531-7.179688-5.648438-10.09375-8.597656zm0 0"/><path d="m133.265625 271.492188c-.320313 0-.640625-.019532-.964844-.066407-81.609375-11.554687-132.300781-39.976562-132.300781-74.171875 0-3.769531 3.054688-6.828125 6.828125-6.828125s6.824219 3.058594 6.824219 6.828125c0 25.660156 49.582031 50.601563 120.570312 60.652344 3.726563.53125 6.324219 3.984375 5.796875 7.714844-.480469 3.410156-3.40625 5.871094-6.753906 5.871094zm0 0"/><path d="m261.046875 273.394531c-3.441406 0-6.398437-2.59375-6.78125-6.09375-.40625-3.746093 2.308594-7.113281 6.054687-7.519531 78.585938-8.488281 135.625-34.785156 135.625-62.527344 0-3.769531 3.054688-6.828125 6.828126-6.828125 3.773437 0 6.828124 3.058594 6.828124 6.828125 0 36.53125-58.019531 66.402344-147.8125 76.101563-.25.027343-.5.039062-.742187.039062zm0 0"/><path d="m133.265625 228.039062c-.3125 0-.640625-.019531-.957031-.066406-81.617188-11.550781-132.308594-39.96875-132.308594-74.171875 0-3.773437 3.054688-6.828125 6.828125-6.828125s6.824219 3.054688 6.824219 6.828125c0 25.664063 49.582031 50.605469 120.5625 60.652344 3.734375.53125 6.332031 3.984375 5.804687 7.714844-.480469 3.410156-3.40625 5.871093-6.753906 5.871093zm0 0"/><path d="m261.054688 229.941406c-3.441407 0-6.402344-2.59375-6.78125-6.09375-.40625-3.746094 2.308593-7.113281 6.054687-7.519531 78.585937-8.488281 135.617187-34.785156 135.617187-62.527344 0-3.773437 3.054688-6.828125 6.828126-6.828125 3.773437 0 6.828124 3.054688 6.828124 6.828125 0 36.53125-58.019531 66.40625-147.808593 76.101563-.246094.027344-.5.039062-.738281.039062zm0 0"/><path d="m133.339844 182.972656c-.3125 0-.640625-.019531-.957032-.066406-81.65625-11.546875-132.382812-39.972656-132.382812-74.183594 0-3.769531 3.054688-6.828125 6.828125-6.828125s6.824219 3.058594 6.824219 6.828125c0 25.671875 49.605468 50.621094 120.636718 60.664063 3.734376.53125 6.332032 3.984375 5.804688 7.714843-.480469 3.40625-3.40625 5.871094-6.753906 5.871094zm0 0"/><path d="m261.054688 184.863281c-3.449219 0-6.402344-2.59375-6.78125-6.09375-.40625-3.75 2.308593-7.117187 6.054687-7.519531 78.585937-8.488281 135.617187-34.78125 135.617187-62.527344 0-3.769531 3.054688-6.828125 6.828126-6.828125 3.773437 0 6.828124 3.058594 6.828124 6.828125 0 36.53125-58.019531 66.40625-147.808593 76.101563-.246094.023437-.5.039062-.738281.039062zm0 0"/><path d="m13.546875 93.277344c-2.179687 0-4.226563-1.039063-5.511719-2.800782-3.832031-5.246093-6.3125-10.765624-7.378906-16.410156-.160156-.835937-.160156-1.699218 0-2.535156 6.726562-35.628906 72.09375-64.246094 162.664062-71.210938 1.914063-.144531 3.765626.507813 5.160157 1.796876 1.394531 1.296874 2.1875 3.113281 2.1875 5.011718v27.355469c0 3.566406-2.746094 6.53125-6.300781 6.804687-70.371094 5.417969-127.40625 24.726563-145.3125 49.191407-1.28125 1.757812-3.328126 2.796875-5.507813 2.796875zm.800781-20.480469c.152344.613281.339844 1.234375.550782 1.855469 24.261718-23.300782 76.855468-40.628906 142.113281-46.453125v-13.644531c-76.910157 7.082031-135.886719 31.0625-142.664063 58.242187zm149.492188-38.3125h.066406zm0 0"/><path d="m396.050781 93.277344c-2.175781 0-4.226562-1.039063-5.503906-2.796875-16.707031-22.828125-67.230469-41.214844-131.847656-47.980469-3.472657-.363281-6.113281-3.296875-6.113281-6.792969v-27.34375c0-1.933593.816406-3.777343 2.257812-5.074219 1.441406-1.292968 3.332031-1.910156 5.28125-1.71875 84.039062 8.792969 142.460938 36.253907 148.820312 69.960938.160157.835938.160157 1.695312 0 2.53125-1.066406 5.648438-3.546874 11.167969-7.378906 16.414062-1.285156 1.761719-3.332031 2.800782-5.515625 2.800782zm-129.8125-63.679688c59.421875 6.964844 106.007813 23.402344 128.46875 45.042969.207031-.613281.390625-1.230469.546875-1.84375-6.339844-25.382813-58.5-48.257813-129.015625-56.792969zm0 0"/><path d="m357.507812 120.585938c-.941406 0-1.882812-.191407-2.761718-.582032-25.003906-11.050781-58.210938-18.984375-96.039063-22.9375-3.476562-.363281-6.117187-3.292968-6.117187-6.792968v-27.296876c0-1.933593.816406-3.777343 2.257812-5.074218 1.441406-1.292969 3.332032-1.886719 5.28125-1.71875 54.164063 5.675781 99.992188 19.671875 125.726563 38.402344 1.757812 1.285156 2.808593 3.335937 2.808593 5.519531 0 2.179687-1.046874 4.234375-2.808593 5.519531-7.128907 5.179688-15.734375 10.019531-25.585938 14.375-.882812.394531-1.824219.585938-2.761719.585938zm-91.269531-36.425782c35.339844 4.140625 66.6875 11.75 91.207031 22.132813 4.265626-1.976563 8.234376-4.042969 11.894532-6.1875-23.566406-13.800781-60.144532-24.296875-103.101563-29.488281zm0 0"/><path d="m52.09375 120.585938c-.941406 0-1.882812-.191407-2.761719-.582032-9.851562-4.359375-18.457031-9.195312-25.585937-14.378906-1.757813-1.285156-2.808594-3.335938-2.808594-5.519531 0-2.183594 1.046875-4.230469 2.808594-5.519531 28.226562-20.546876 79.09375-35 139.566406-39.648438 1.992188-.121094 3.773438.511719 5.167969 1.796875 1.390625 1.292969 2.183593 3.109375 2.183593 5.011719v27.3125c0 3.566406-2.746093 6.53125-6.304687 6.804687-42.839844 3.296875-81.734375 11.867188-109.507813 24.140625-.878906.390625-1.820312.582032-2.757812.582032zm-11.820312-20.472657c3.648437 2.140625 7.621093 4.207031 11.886718 6.183594 27.492188-11.628906 64.386719-19.902344 104.855469-23.523437v-13.605469c-48.382813 4.457031-90.667969 15.71875-116.742187 30.945312zm0 0"/><path d="m27.765625 106.933594c-1.410156 0-2.816406-.4375-4.015625-1.308594-6.574219-4.785156-11.863281-9.878906-15.707031-15.140625-1.761719-2.398437-1.761719-5.660156 0-8.0625 20.457031-27.976563 79.960937-48.953125 155.269531-54.746094 1.996094-.144531 3.773438.507813 5.167969 1.796875 1.394531 1.292969 2.1875 3.109375 2.1875 5.011719v27.257813c0 3.566406-2.746094 6.535156-6.300781 6.808593-57.171876 4.394531-106.734376 18.253907-132.582032 37.074219-1.199218.871094-2.605468 1.308594-4.019531 1.308594zm-5.359375-20.492188c1.640625 1.75 3.507812 3.492188 5.585938 5.210938 27.855468-18.289063 74.207031-31.308594 129.019531-36.191406v-13.550782c-63.105469 5.800782-114.433594 22.832032-134.605469 44.53125zm0 0"/><path d="m381.832031 106.933594c-1.414062 0-2.820312-.4375-4.019531-1.308594-23.847656-17.359375-67.257812-30.429688-119.113281-35.859375-3.472657-.363281-6.113281-3.292969-6.113281-6.792969v-27.261718c0-1.933594.820312-3.777344 2.261718-5.074219 1.4375-1.289063 3.332032-1.898438 5.277344-1.71875 69.371094 7.269531 122.242188 27.269531 141.433594 53.503906 1.761718 2.402344 1.761718 5.664063 0 8.066406-3.84375 5.257813-9.132813 10.355469-15.707032 15.136719-1.199218.871094-2.609374 1.308594-4.019531 1.308594zm-115.59375-50.066406c48.667969 5.722656 90.0625 18.21875 115.363281 34.789062 2.085938-1.71875 3.953126-3.464844 5.589844-5.21875-18.625-20.066406-63.75-36.179688-120.953125-43.089844zm0 0"/><path d="m243.027344 319.589844h-90.109375c-2.152344 0-4.171875-1.015625-5.464844-2.734375l-16.386719-21.882813c-.882812-1.179687-1.363281-2.613281-1.363281-4.089844v-122.53125c0-1.277343.363281-2.527343 1.035156-3.613281l16.386719-26.257812c1.246094-2 3.441406-3.210938 5.792969-3.210938h90.109375c2.351562 0 4.546875 1.210938 5.792968 3.210938l16.386719 26.257812c.675781 1.085938 1.03125 2.335938 1.03125 3.613281v122.53125c0 1.476563-.476562 2.910157-1.359375 4.089844l-16.386718 21.882813c-1.292969 1.71875-3.3125 2.734375-5.464844 2.734375zm-86.691406-13.65625h83.277343l12.972657-17.324219v-118.300781l-13.34375-21.386719h-82.535157l-13.347656 21.386719v118.300781zm0 0"/><path d="m232.660156 285.453125h-69.554687c-3.773438 0-6.824219-3.054687-6.824219-6.824219v-102.402344c0-3.769531 3.050781-6.824218 6.824219-6.824218h69.554687c3.773438 0 6.824219 3.054687 6.824219 6.824218v102.402344c0 3.769532-3.050781 6.824219-6.824219 6.824219zm-62.726562-13.652344h55.898437v-88.746093h-55.898437zm0 0"/><path d="m236.726562 193.445312c-2.339843 0-4.621093-1.203124-5.886718-3.363281-1.914063-3.25-.832032-7.433593 2.421875-9.347656l18.050781-10.628906-6.792969-9.996094-9.691406 16.980469c-1.875 3.265625-6.046875 4.40625-9.3125 2.546875-3.273437-1.871094-4.414063-6.039063-2.542969-9.3125l15.121094-26.484375c1.167969-2.046875 3.308594-3.347656 5.660156-3.4375 2.300782-.085938 4.589844 1.035156 5.914063 2.984375l17.03125 25.066406c1.058593 1.5625 1.425781 3.496094 1.011719 5.335937-.410157 1.839844-1.570313 3.429688-3.199219 4.382813l-24.332031 14.324219c-1.085938.648437-2.277344.949218-3.453126.949218zm0 0"/><path d="m161.878906 193.445312c-1.183594 0-2.390625-.3125-3.484375-.960937l-28.585937-17.035156c-1.574219-.9375-2.703125-2.460938-3.140625-4.238281-.433594-1.777344-.132813-3.65625.824219-5.210938l14.898437-24.132812c1.1875-1.929688 3.253906-3.136719 5.519531-3.234376 2.167969-.085937 4.429688.9375 5.773438 2.753907l20.410156 27.550781c2.238281 3.027344 1.605469 7.300781-1.421875 9.546875-3.046875 2.242187-7.304687 1.605469-9.554687-1.421875l-14.40625-19.445312-5.957032 9.65625 22.625 13.480468c3.238282 1.929688 4.300782 6.121094 2.375 9.355469-1.28125 2.144531-3.546875 3.335937-5.875 3.335937zm0 0"/><path d="m150.328125 313.75c-1.496094 0-3-.488281-4.261719-1.496094-2.941406-2.355468-3.417968-6.648437-1.066406-9.59375l18.273438-22.851562c2.351562-2.9375 6.648437-3.421875 9.601562-1.066406 2.9375 2.355468 3.417969 6.648437 1.066406 9.59375l-18.273437 22.851562c-1.347657 1.683594-3.335938 2.5625-5.339844 2.5625zm0 0"/><path d="m136.539062 289.542969c-2.371093 0-4.671874-1.234375-5.933593-3.441407-1.875-3.273437-.734375-7.441406 2.539062-9.3125l24.203125-13.832031c3.273438-1.882812 7.445313-.734375 9.3125 2.539063 1.875 3.273437.734375 7.445312-2.539062 9.3125l-24.203125 13.832031c-1.066407.613281-2.230469.902344-3.378907.902344zm0 0"/><path d="m244.019531 313.75c-2.074219 0-4.03125-.941406-5.332031-2.5625l-21.296875-26.617188c-2.351563-2.945312-1.871094-7.242187 1.066406-9.59375 2.960938-2.359374 7.242188-1.878906 9.601563 1.066407l15.824218 19.785156 5.847657-7.679687c2.289062-2.996094 6.566406-3.585938 9.566406-1.292969 3 2.285156 3.582031 6.566406 1.300781 9.566406l-11.144531 14.636719c-1.273437 1.671875-3.246094 2.664062-5.355469 2.6875-.023437.003906-.050781.003906-.078125.003906zm0 0"/><path d="m258.257812 289.535156c-1.296874 0-2.609374-.371094-3.777343-1.148437l-22.769531-15.179688c-3.140626-2.09375-3.984376-6.328125-1.890626-9.464843 2.078126-3.136719 6.3125-3.996094 9.464844-1.894532l22.769532 15.179688c3.140624 2.097656 3.984374 6.332031 1.890624 9.46875-1.3125 1.972656-3.480468 3.039062-5.6875 3.039062zm0 0"/></g><use xlink:href="#bracelet-paths" style="fill: currentColor; stroke: currentColor"></use></svg>