<svg height="423pt" viewBox="-3 0 423 423.25333" width="423pt" xmlns="http://www.w3.org/2000/svg"><path d="m277.921875 371.332031c-1.554687 0-3.105469-.527343-4.371094-1.578125l-33.261719-27.722656-125.722656-24.171875c-16.132812-3.105469-30.542968-12.773437-39.53125-26.527344l-69.566406-106.390625c-5.113281-7.816406-6.644531-17.46875-4.207031-26.488281 2.433593-9.023437 8.625-16.589844 16.984375-20.773437 14.464844-7.234376 32.339844-2.667969 41.570312 10.605468l38.644532 52.894532c3.828124-2.046876 8.191406-3.207032 12.828124-3.207032h128.472657c24.226562 0 47.890625 9.878906 64.925781 27.113282l64.621094 65.394531c1.359375 1.378906 2.070312 3.265625 1.960937 5.199219-.113281 1.925781-1.039062 3.722656-2.554687 4.933593l-86.53125 69.226563c-1.246094.992187-2.753906 1.492187-4.261719 1.492187zm-245.113281-223.433593c-2.871094 0-5.765625.648437-8.453125 1.996093-4.875 2.4375-8.496094 6.859375-9.914063 12.125-1.421875 5.257813-.527344 10.886719 2.453125 15.453125l69.566407 106.394532c6.980468 10.664062 18.164062 18.171874 30.683593 20.578124l127.449219 24.507813c1.132812.21875 2.191406.71875 3.078125 1.460937l30.335937 25.277344 76.257813-61.007812-59.292969-60c-14.480468-14.648438-34.605468-23.058594-55.210937-23.058594h-128.472657c-7.527343 0-13.652343 6.128906-13.652343 13.65625 0 7.523438 6.125 13.652344 13.652343 13.652344h114.707032c3.769531 0 6.828125 3.054687 6.828125 6.828125 0 3.773437-3.058594 6.824219-6.828125 6.824219h-114.707032c-15.054687 0-27.304687-12.246094-27.304687-27.304688 0-5.445312 1.601563-10.527344 4.363281-14.792969l-39.644531-54.273437c-3.734375-5.367188-9.761719-8.316406-15.894531-8.316406zm0 0"/><path d="m322.917969 423.253906c-1.753907 0-3.5-.675781-4.828125-2l-27.304688-27.308594c-1.382812-1.378906-2.105468-3.285156-1.988281-5.230468.117187-1.945313 1.058594-3.753906 2.597656-4.960938l95.570313-75.09375c1.464844-1.152344 3.328125-1.652344 5.175781-1.390625 1.84375.257813 3.496094 1.257813 4.582031 2.773438l20.480469 28.460937c2.09375 2.90625 1.585937 6.9375-1.171875 9.230469l-88.746094 73.941406c-1.265625 1.058594-2.820312 1.578125-4.367187 1.578125zm-17.039063-33.519531 17.457032 17.457031 79.070312-65.878906-12.605469-17.523438zm0 0"/><path d="m152.25 187.734375c-1.902344 0-3.722656-.792969-5.015625-2.195313l-78.84375-85.332031c-1.839844-1.992187-2.328125-4.886719-1.242187-7.367187 1.089843-2.488282 3.542968-4.09375 6.253906-4.09375h157.695312c2.710938 0 5.164063 1.605468 6.253906 4.09375 1.085938 2.480468.597657 5.371094-1.242187 7.367187l-78.847656 85.332031c-1.289063 1.402344-3.105469 2.195313-5.011719 2.195313zm-63.242188-85.335937 63.246094 68.449218 63.242188-68.449218zm0 0"/><path d="m231.097656 102.398438h-157.695312c-2.5 0-4.804688-1.371094-6-3.570313-1.195313-2.203125-1.085938-4.882813.277344-6.976563l26.648437-40.957031c1.257813-1.941406 3.410156-3.109375 5.722656-3.109375h104.398438c2.3125 0 4.464843 1.167969 5.726562 3.109375l26.644531 40.957031c1.363282 2.09375 1.46875 4.773438.277344 6.976563-1.191406 2.199219-3.496094 3.570313-6 3.570313zm-145.105468-13.652344h132.519531l-17.765625-27.304688h-96.992188zm0 0"/><path d="m152.25 187.734375c-2.882812 0-5.457031-1.8125-6.429688-4.535156l-29.867187-83.625c-.746094-2.082031-.429687-4.394531.835937-6.207031l29.867188-42.667969c1.300781-1.851563 3.375-2.984375 5.703125-2.914063 2.265625.039063 4.367187 1.195313 5.601563 3.09375l27.878906 42.667969c1.144531 1.746094 1.421875 3.914063.761718 5.890625l-27.875 83.628906c-.921874 2.757813-3.496093 4.632813-6.40625 4.664063-.023437.003906-.046874.003906-.070312.003906zm-22.25-89.425781 22.027344 61.679687 20.582031-61.734375-20.550781-31.460937zm0 0"/><path d="m152.25 27.984375c-3.769531 0-6.828125-3.050781-6.828125-6.824219v-14.332031c0-3.773437 3.058594-6.828125 6.828125-6.828125s6.828125 3.054688 6.828125 6.828125v14.332031c0 3.773438-3.058594 6.824219-6.828125 6.824219zm0 0"/><path d="m214.023438 35.160156c-1.195313 0-2.40625-.3125-3.503907-.972656-3.234375-1.941406-4.28125-6.132812-2.339843-9.367188l7.167968-11.945312c1.941406-3.234375 6.125-4.285156 9.367188-2.339844 3.234375 1.941406 4.277344 6.132813 2.339844 9.367188l-7.171876 11.945312c-1.277343 2.132813-3.539062 3.3125-5.859374 3.3125zm0 0"/><path d="m245.089844 73.046875c-1.496094 0-3.003906-.484375-4.257813-1.492187-2.949219-2.359376-3.425781-6.652344-1.066406-9.601563l9.554687-11.945313c2.359376-2.941406 6.65625-3.421874 9.59375-1.066406 2.949219 2.359375 3.425782 6.652344 1.066407 9.597656l-9.554688 11.949219c-1.347656 1.679688-3.335937 2.558594-5.335937 2.558594zm0 0"/><path d="m90.476562 35.160156c-2.316406 0-4.578124-1.179687-5.859374-3.3125l-7.171876-11.945312c-1.9375-3.234375-.890624-7.429688 2.339844-9.367188 3.234375-1.941406 7.425782-.890625 9.367188 2.339844l7.171875 11.945312c1.9375 3.234376.890625 7.429688-2.339844 9.367188-1.101563.660156-2.308594.972656-3.507813.972656zm0 0"/><path d="m59.410156 73.046875c-2.003906 0-3.984375-.878906-5.332031-2.558594l-9.558594-11.949219c-2.355469-2.945312-1.878906-7.238281 1.066407-9.597656 2.941406-2.355468 7.238281-1.867187 9.59375 1.066406l9.558593 11.945313c2.355469 2.949219 1.878907 7.242187-1.066406 9.601563-1.257813 1.007812-2.765625 1.492187-4.261719 1.492187zm0 0"/></svg>