<svg height="415pt" viewBox="-20 0 415 415.07481" width="415pt" xmlns="http://www.w3.org/2000/svg"><g id="earring-paths"><path d="m289.828125 415.074219c-4.5 0-8.769531-1.945313-11.699219-5.34375-54.554687-63.003907-72.246094-117.789063-72.972656-120.089844-.382812-1.203125-.421875-2.484375-.113281-3.710937 7.851562-31.445313 53.671875-87.953126 73.003906-110.796876 5.878906-6.949218 17.679687-6.949218 23.5625 0 19.332031 22.835938 65.152344 79.347657 73.003906 110.796876.308594 1.226562.269531 2.507812-.109375 3.710937-.730468 2.300781-18.421875 57.085937-72.976562 120.09375-2.933594 3.394531-7.199219 5.339844-11.699219 5.339844zm-71.027344-127.71875c3.539063 9.949219 22.511719 59 69.648438 113.441406.945312 1.085937 1.8125 1.082031 2.757812 0 47.132813-54.441406 66.105469-103.492187 69.648438-113.441406-8.847657-30.015625-55.371094-86.511719-69.671875-103.402344-.882813-1.046875-1.828125-1.046875-2.707032 0-14.300781 16.890625-60.828124 73.386719-69.675781 103.402344zm64.460938-107.8125h.066406zm0 0"/><path d="m289.828125 382.496094c-3.761719 0-7.308594-1.695313-9.71875-4.644532-37.261719-45.585937-49.382813-85.304687-49.875-86.972656-.339844-1.144531-.378906-2.359375-.105469-3.519531 5.414063-22.917969 36.707032-63.828125 49.90625-80.355469v-.003906c4.839844-6.046875 14.746094-6.046875 19.585938 0 13.199218 16.53125 44.492187 57.441406 49.90625 80.359375.273437 1.164063.234375 2.375-.105469 3.519531-.492187 1.667969-12.613281 41.386719-49.867187 86.964844-2.421876 2.957031-5.96875 4.652344-9.726563 4.652344zm-45.941406-93.777344c2.722656 7.9375 15.414062 41.769531 45.941406 79.445312 30.527344-37.671874 43.21875-71.507812 45.941406-79.445312-6.054687-20.699219-35.480469-58.9375-45.941406-72.097656-10.460937 13.160156-39.886719 51.398437-45.941406 72.097656zm46.816406-73.191406v.003906c0-.003906 0-.003906 0-.003906zm0 0"/><path d="m289.828125 143.753906c-3.773437 0-6.828125-3.058594-6.828125-6.828125v-5.105469c0-3.769531 3.054688-6.828124 6.828125-6.828124s6.828125 3.058593 6.828125 6.828124v5.105469c0 3.769531-3.054688 6.828125-6.828125 6.828125zm0 0"/><path d="m361.734375 122.4375c-1.105469 0-2.226563-.265625-3.257813-.832031-26.082031-14.226563-28.523437-31.523438-31.101562-49.832031-1.261719-8.957032-2.566406-18.214844-6.441406-28.871094-6.625-18.222656-16.90625-25.105469-24.359375-27.675782-8.292969-2.863281-17.410157-1.769531-25.011719 2.988282-14.160156 8.851562-21.351562 31.261718-19.179688 46.644531.582032 4.128906 2.40625 11.300781 8.054688 12.917969 23.320312 6.664062 33.785156 16.9375 34.21875 17.371094 2.667969 2.664062 2.667969 6.988281 0 9.652343-2.652344 2.660157-6.953125 2.667969-9.621094.035157-.246094-.234376-8.9375-8.382813-28.34375-13.929688-9.554687-2.726562-16.046875-11.527344-17.828125-24.140625-2.757812-19.539063 6.195313-48.089844 25.460938-60.128906 11.113281-6.949219 24.507812-8.53125 36.699219-4.316407 14.515624 4.996094 26.140624 17.75 32.742187 35.914063 4.367187 12 5.832031 22.433594 7.132813 31.632813 2.535156 17.964843 4.0625 28.8125 24.113281 39.75 3.3125 1.808593 4.535156 5.953124 2.730469 9.265624-1.246094 2.269532-3.585938 3.554688-6.007813 3.554688zm0 0"/><path d="m288.261719 134.078125c-11.359375 0-20.601563-9.242187-20.601563-20.601563 0-11.363281 9.242188-20.605468 20.601563-20.605468s20.605469 9.242187 20.605469 20.605468c0 11.359376-9.246094 20.601563-20.605469 20.601563zm0-27.558594c-3.832031 0-6.945313 3.121094-6.945313 6.953125 0 3.835938 3.113282 6.953125 6.945313 6.953125s6.953125-3.117187 6.953125-6.953125c0-3.832031-3.121094-6.953125-6.953125-6.953125zm0 0"/><path d="m288.261719 175.039062c-11.359375 0-20.601563-9.242187-20.601563-20.601562 0-11.363281 9.242188-20.609375 20.601563-20.609375s20.605469 9.246094 20.605469 20.609375c0 11.359375-9.246094 20.601562-20.605469 20.601562zm0-27.558593c-3.832031 0-6.945313 3.121093-6.945313 6.953125 0 3.832031 3.113282 6.949218 6.945313 6.949218s6.953125-3.117187 6.953125-6.949218c0-3.832032-3.121094-6.953125-6.953125-6.953125zm0 0"/><path d="m310.316406 293.550781c-2.320312 0-4.582031-1.179687-5.863281-3.3125l-20.480469-34.132812c-1.9375-3.234375-.890625-7.425781 2.339844-9.367188 3.246094-1.945312 7.429688-.886719 9.367188 2.339844l20.480468 34.132813c1.941406 3.234374.890625 7.429687-2.339844 9.367187-1.097656.660156-2.3125.972656-3.503906.972656zm0 0"/><path d="m85.027344 415.074219c-4.5 0-8.765625-1.945313-11.699219-5.34375-54.554687-63.003907-72.246094-117.789063-72.972656-120.089844-.3828128-1.203125-.4218752-2.484375-.113281-3.710937 7.855468-31.445313 53.671874-87.953126 73.007812-110.796876 5.878906-6.949218 17.675781-6.949218 23.558594 0 19.332031 22.835938 65.152344 79.347657 73.007812 110.796876.304688 1.226562.265625 2.507812-.113281 3.710937-.726563 2.300781-18.421875 57.085937-72.972656 120.09375-2.9375 3.394531-7.203125 5.339844-11.703125 5.339844zm-71.027344-127.71875c3.539062 9.949219 22.515625 59 69.648438 113.441406.949218 1.085937 1.8125 1.082031 2.761718 0 47.132813-54.441406 66.105469-103.492187 69.644532-113.441406-8.847657-30.015625-55.371094-86.511719-69.671876-103.402344-.878906-1.046875-1.828124-1.046875-2.707031 0-14.300781 16.890625-60.828125 73.386719-69.675781 103.402344zm64.460938-107.8125h.066406zm0 0"/><path d="m85.027344 382.496094c-3.757813 0-7.304688-1.695313-9.71875-4.644532-37.261719-45.585937-49.382813-85.304687-49.875-86.972656-.339844-1.144531-.378906-2.359375-.105469-3.519531 5.414063-22.917969 36.707031-63.828125 49.90625-80.355469v-.003906c4.839844-6.046875 14.746094-6.046875 19.585937 0 13.203126 16.53125 44.496094 57.441406 49.910157 80.359375.269531 1.164063.230469 2.375-.109375 3.519531-.492188 1.667969-12.613282 41.386719-49.867188 86.964844-2.421875 2.957031-5.964844 4.652344-9.726562 4.652344zm-45.941406-93.777344c2.722656 7.9375 15.414062 41.769531 45.941406 79.445312 30.527344-37.671874 43.21875-71.507812 45.941406-79.445312-6.054688-20.699219-35.480469-58.9375-45.941406-72.097656-10.460938 13.160156-39.886719 51.398437-45.941406 72.097656zm46.816406-73.191406v.003906c0-.003906 0-.003906 0-.003906zm0 0"/><path d="m85.027344 143.753906c-3.773438 0-6.828125-3.058594-6.828125-6.828125v-5.105469c0-3.769531 3.054687-6.828124 6.828125-6.828124 3.773437 0 6.828125 3.058593 6.828125 6.828124v5.105469c0 3.769531-3.054688 6.828125-6.828125 6.828125zm0 0"/><path d="m156.933594 122.4375c-1.105469 0-2.226563-.265625-3.257813-.832031-26.082031-14.226563-28.519531-31.523438-31.101562-49.832031-1.257813-8.957032-2.566407-18.214844-6.4375-28.871094-6.628907-18.222656-16.90625-25.105469-24.359375-27.675782-8.292969-2.863281-17.421875-1.769531-25.015625 2.988282-14.160157 8.851562-21.355469 31.261718-19.179688 46.644531.578125 4.128906 2.40625 11.300781 8.054688 12.917969 23.320312 6.664062 33.785156 16.9375 34.21875 17.371094 2.667969 2.664062 2.667969 6.988281 0 9.652343-2.652344 2.660157-6.953125 2.667969-9.621094.035157-.246094-.234376-8.9375-8.382813-28.34375-13.929688-9.554687-2.726562-16.046875-11.527344-17.828125-24.140625-2.757812-19.539063 6.195312-48.089844 25.460938-60.128906 11.113281-6.949219 24.503906-8.53125 36.699218-4.316407 14.515625 4.996094 26.140625 17.75 32.742188 35.914063 4.367187 12 5.832031 22.433594 7.132812 31.632813 2.53125 17.964843 4.058594 28.8125 24.113282 39.75 3.3125 1.808593 4.535156 5.953124 2.726562 9.265624-1.242188 2.269532-3.582031 3.554688-6.003906 3.554688zm0 0"/><path d="m83.460938 134.078125c-11.359376 0-20.597657-9.242187-20.597657-20.601563 0-11.363281 9.238281-20.605468 20.597657-20.605468 11.359374 0 20.605468 9.242187 20.605468 20.605468 0 11.359376-9.246094 20.601563-20.605468 20.601563zm0-27.558594c-3.832032 0-6.945313 3.121094-6.945313 6.953125 0 3.835938 3.113281 6.953125 6.945313 6.953125 3.832031 0 6.953124-3.117187 6.953124-6.953125 0-3.832031-3.121093-6.953125-6.953124-6.953125zm0 0"/><path d="m83.460938 175.039062c-11.359376 0-20.597657-9.242187-20.597657-20.601562 0-11.363281 9.238281-20.609375 20.597657-20.609375 11.359374 0 20.605468 9.246094 20.605468 20.609375 0 11.359375-9.246094 20.601562-20.605468 20.601562zm0-27.558593c-3.832032 0-6.945313 3.121093-6.945313 6.953125 0 3.832031 3.113281 6.949218 6.945313 6.949218 3.832031 0 6.953124-3.117187 6.953124-6.949218 0-3.832032-3.121093-6.953125-6.953124-6.953125zm0 0"/><path d="m105.515625 293.550781c-2.320313 0-4.582031-1.179687-5.863281-3.3125l-20.480469-34.132812c-1.9375-3.234375-.890625-7.425781 2.339844-9.367188 3.242187-1.945312 7.429687-.886719 9.367187 2.339844l20.480469 34.132813c1.941406 3.234374.894531 7.429687-2.339844 9.367187-1.097656.660156-2.3125.972656-3.503906.972656zm0 0"/></g><use xlink:href="#earring-paths" style="fill: currentColor; stroke: currentColor"></use></svg>