<svg height="416pt" viewBox="-65 0 416 416.42667" width="416pt" xmlns="http://www.w3.org/2000/svg"><g id="ring-paths"><path d="m143.574219 416.425781c-79.050781 0-143.359375-64.308593-143.359375-143.359375 0-65.417968 44.1875-122.507812 107.457031-138.828125 3.652344-.941406 7.375 1.257813 8.316406 4.90625.941407 3.652344-1.253906 7.375-4.90625 8.316407-57.238281 14.761718-97.214843 66.410156-97.214843 125.605468 0 71.519532 58.1875 129.707032 129.707031 129.707032s129.707031-58.1875 129.707031-129.707032c0-58.683594-39.546875-110.21875-96.171875-125.332031-3.644531-.972656-5.804687-4.710937-4.835937-8.355469.96875-3.640625 4.699218-5.800781 8.355468-4.835937 62.589844 16.703125 106.304688 73.667969 106.304688 138.523437 0 79.050782-64.3125 143.359375-143.359375 143.359375zm0-40.332031c-56.8125 0-103.027344-46.21875-103.027344-103.027344s46.214844-103.027344 103.027344-103.027344c56.808593 0 103.027343 46.21875 103.027343 103.027344s-46.21875 103.027344-103.027343 103.027344zm0-192.398438c-49.28125 0-89.375 40.089844-89.375 89.371094s40.09375 89.375 89.375 89.375c49.277343 0 89.371093-40.09375 89.371093-89.375s-40.09375-89.371094-89.371093-89.371094zm0 0"/><path d="m143.574219 180.90625c-1.902344 0-3.726563-.796875-5.015625-2.191406l-78.847656-85.335938c-1.835938-1.992187-2.324219-4.886718-1.238282-7.367187 1.085938-2.484375 3.539063-4.089844 6.253906-4.089844h157.691407c2.714843 0 5.167969 1.605469 6.253906 4.085937 1.089844 2.484376.601563 5.378907-1.238281 7.371094l-78.847656 85.332032c-1.289063 1.398437-3.109376 2.195312-5.011719 2.195312zm-63.246094-85.332031 63.246094 68.445312 63.242187-68.445312zm0 0"/><path d="m222.417969 95.574219h-157.691407c-2.503906 0-4.804687-1.371094-6-3.574219-1.191406-2.199219-1.085937-4.875.277344-6.976562l26.644532-40.960938c1.261718-1.9375 3.414062-3.101562 5.726562-3.101562h104.398438c2.3125 0 4.464843 1.167968 5.722656 3.101562l26.648437 40.960938c1.363281 2.097656 1.46875 4.777343.277344 6.976562-1.195313 2.203125-3.5 3.574219-6.003906 3.574219zm-145.105469-13.652344h132.519531l-17.761719-27.308594h-96.992187zm0 0"/><path d="m143.574219 180.90625c-2.882813 0-5.457031-1.808594-6.429688-4.527344l-29.867187-83.628906c-.746094-2.082031-.429688-4.398438.835937-6.210938l29.867188-42.664062c1.300781-1.859375 3.414062-2.988281 5.703125-2.914062 2.265625.035156 4.367187 1.195312 5.601562 3.089843l27.878906 42.667969c1.140626 1.742188 1.421876 3.914062.761719 5.894531l-27.878906 83.625c-.917969 2.761719-3.492187 4.636719-6.402344 4.667969-.023437 0-.046875 0-.070312 0zm-22.25-89.425781 22.027343 61.679687 20.578126-61.734375-20.550782-31.457031zm0 0"/><path d="m143.574219 27.988281c-3.769531 0-6.828125-3.054687-6.828125-6.824219v-14.335937c0-3.773437 3.058594-6.828125 6.828125-6.828125s6.824219 3.054688 6.824219 6.828125v14.335937c0 3.769532-3.054688 6.824219-6.824219 6.824219zm0 0"/><path d="m205.347656 28.332031c-1.199218 0-2.40625-.316406-3.507812-.972656-3.234375-1.941406-4.28125-6.136719-2.339844-9.367187l7.167969-11.945313c1.9375-3.238281 6.132812-4.28125 9.367187-2.339844 3.234375 1.9375 4.28125 6.132813 2.339844 9.363281l-7.167969 11.949219c-1.28125 2.128907-3.539062 3.3125-5.859375 3.3125zm0 0"/><path d="m236.414062 66.21875c-1.5 0-3.003906-.488281-4.261718-1.496094-2.945313-2.351562-3.421875-6.648437-1.066406-9.59375l9.558593-11.945312c2.351563-2.953125 6.65625-3.421875 9.59375-1.066406 2.945313 2.351562 3.421875 6.648437 1.066407 9.59375l-9.558594 11.945312c-1.347656 1.6875-3.332032 2.5625-5.332032 2.5625zm0 0"/><path d="m81.800781 28.332031c-2.320312 0-4.582031-1.179687-5.859375-3.3125l-7.171875-11.949219c-1.941406-3.234374-.890625-7.425781 2.339844-9.363281 3.234375-1.9375 7.429687-.890625 9.367187 2.339844l7.167969 11.945313c1.941407 3.234374.894531 7.425781-2.339843 9.367187-1.097657.65625-2.308594.972656-3.503907.972656zm0 0"/><path d="m50.734375 66.21875c-2.003906 0-3.988281-.875-5.332031-2.5625l-9.558594-11.945312c-2.355469-2.945313-1.882812-7.242188 1.066406-9.59375 2.941406-2.355469 7.238282-1.878907 9.59375 1.066406l9.558594 11.945312c2.355469 2.945313 1.878906 7.242188-1.070312 9.59375-1.257813 1.007813-2.761719 1.496094-4.257813 1.496094zm0 0"/></g><use xlink:href="#ring-paths" style="fill: currentColor; stroke: currentColor"></use></svg>